<svg xmlns="http://www.w3.org/2000/svg" viewBox="0 0 16 17">
  <path fill="none"
        fill-rule="evenodd"
        clip-rule="evenodd"
        d="M2.53848 4.3954C3.13857 3.758 3.95235 3.39993 4.80088 3.39993C5.6494 3.39993 6.46319 3.758 7.06328 4.3954L8.00088 5.39075L8.93848 4.3954C9.23367 4.07067 9.58677 3.81165 9.97718 3.63346C10.3676 3.45527 10.7875 3.36147 11.2124 3.35755C11.6373 3.35363 12.0587 3.43965 12.4519 3.61061C12.8452 3.78156 13.2025 4.03402 13.5029 4.35326C13.8034 4.67249 14.041 5.05211 14.2019 5.46996C14.3628 5.88781 14.4438 6.33552 14.4401 6.78697C14.4364 7.23842 14.3481 7.68456 14.1804 8.09938C14.0127 8.51419 13.7689 8.88936 13.4633 9.203L8.00088 15.0077L2.53848 9.203C1.93857 8.56541 1.60156 7.70076 1.60156 6.7992C1.60156 5.89764 1.93857 5.033 2.53848 4.3954Z"
        stroke="currentColor"
        stroke-width="2"
        stroke-linejoin="round"/>
</svg>
